<mxfile host="65bd71144e">
    <diagram id="IQpChjkvWQQ_xmJR2pud" name="Page-1">
        <mxGraphModel dx="1453" dy="1047" grid="0" gridSize="10" guides="1" tooltips="1" connect="1" arrows="1" fold="1" page="1" pageScale="1" pageWidth="850" pageHeight="1100" background="#ffffff" math="0" shadow="0">
            <root>
                <mxCell id="0"/>
                <mxCell id="1" parent="0"/>
                <mxCell id="2" value="&lt;font color=&quot;#121212&quot;&gt;Theatre's Database Server&lt;/font&gt;" style="shape=cube;whiteSpace=wrap;html=1;boundedLbl=1;backgroundOutline=1;darkOpacity=0.05;darkOpacity2=0.1;fillColor=#FFFFFF;strokeColor=#000000;" vertex="1" parent="1">
                    <mxGeometry x="668" y="308" width="120" height="80" as="geometry"/>
                </mxCell>
                <mxCell id="4" style="edgeStyle=none;html=1;fontColor=#121212;strokeColor=#000000;endArrow=none;endFill=0;entryX=0;entryY=0;entryDx=0;entryDy=0;entryPerimeter=0;" edge="1" parent="1" source="3" target="2">
                    <mxGeometry relative="1" as="geometry">
                        <mxPoint x="700" y="331" as="targetPoint"/>
                    </mxGeometry>
                </mxCell>
                <mxCell id="10" style="edgeStyle=none;html=1;entryX=0;entryY=0;entryDx=20;entryDy=80;entryPerimeter=0;fontColor=#121212;endArrow=none;endFill=0;strokeColor=#000000;exitX=0;exitY=0;exitDx=100;exitDy=0;exitPerimeter=0;" edge="1" parent="1" source="12" target="9">
                    <mxGeometry relative="1" as="geometry"/>
                </mxCell>
                <mxCell id="13" style="edgeStyle=none;html=1;entryX=0;entryY=0;entryDx=120;entryDy=20;entryPerimeter=0;fontColor=#121212;endArrow=none;endFill=0;strokeColor=#000000;exitX=0.013;exitY=0.218;exitDx=0;exitDy=0;exitPerimeter=0;" edge="1" parent="1" source="3" target="12">
                    <mxGeometry relative="1" as="geometry">
                        <mxPoint x="440" y="241" as="sourcePoint"/>
                    </mxGeometry>
                </mxCell>
                <mxCell id="3" value="&lt;font color=&quot;#121212&quot;&gt;Theatre Local Server&lt;/font&gt;" style="shape=cube;whiteSpace=wrap;html=1;boundedLbl=1;backgroundOutline=1;darkOpacity=0.05;darkOpacity2=0.1;fillColor=#FFFFFF;strokeColor=#000000;" vertex="1" parent="1">
                    <mxGeometry x="463" y="203" width="120" height="80" as="geometry"/>
                </mxCell>
                <mxCell id="5" value="&amp;lt;&amp;lt;Local Connection&amp;gt;&amp;gt;" style="text;html=1;align=center;verticalAlign=middle;resizable=0;points=[];autosize=1;strokeColor=none;fillColor=none;fontColor=#121212;" vertex="1" parent="1">
                    <mxGeometry x="620" y="251" width="131" height="18" as="geometry"/>
                </mxCell>
                <mxCell id="7" style="edgeStyle=none;html=1;fontColor=#121212;endArrow=none;endFill=0;strokeColor=#000000;exitX=0;exitY=0;exitDx=100;exitDy=0;exitPerimeter=0;entryX=0;entryY=0;entryDx=20;entryDy=80;entryPerimeter=0;" edge="1" parent="1" source="6" target="12">
                    <mxGeometry relative="1" as="geometry">
                        <mxPoint x="314" y="309" as="targetPoint"/>
                    </mxGeometry>
                </mxCell>
                <mxCell id="6" value="&lt;font color=&quot;#121212&quot;&gt;User Station&lt;/font&gt;" style="shape=cube;whiteSpace=wrap;html=1;boundedLbl=1;backgroundOutline=1;darkOpacity=0.05;darkOpacity2=0.1;fillColor=#FFFFFF;strokeColor=#000000;" vertex="1" parent="1">
                    <mxGeometry x="44" y="347" width="120" height="80" as="geometry"/>
                </mxCell>
                <mxCell id="8" value="&amp;lt;&amp;lt;Internet&amp;gt;&amp;gt;" style="text;html=1;align=center;verticalAlign=middle;resizable=0;points=[];autosize=1;strokeColor=none;fillColor=none;fontColor=#121212;" vertex="1" parent="1">
                    <mxGeometry x="113" y="281" width="79" height="18" as="geometry"/>
                </mxCell>
                <mxCell id="9" value="&lt;font color=&quot;#121212&quot;&gt;Financial Institution Transaction Server&lt;/font&gt;" style="shape=cube;whiteSpace=wrap;html=1;boundedLbl=1;backgroundOutline=1;darkOpacity=0.05;darkOpacity2=0.1;fillColor=#FFFFFF;strokeColor=#000000;" vertex="1" parent="1">
                    <mxGeometry x="381" y="12" width="120" height="80" as="geometry"/>
                </mxCell>
                <mxCell id="11" value="&amp;lt;&amp;lt;Internet&amp;gt;&amp;gt;" style="text;html=1;align=center;verticalAlign=middle;resizable=0;points=[];autosize=1;strokeColor=none;fillColor=none;fontColor=#121212;" vertex="1" parent="1">
                    <mxGeometry x="281" y="114" width="79" height="18" as="geometry"/>
                </mxCell>
                <mxCell id="12" value="&lt;font color=&quot;#121212&quot;&gt;Main Database&lt;/font&gt;" style="shape=cube;whiteSpace=wrap;html=1;boundedLbl=1;backgroundOutline=1;darkOpacity=0.05;darkOpacity2=0.1;fillColor=#FFFFFF;strokeColor=#000000;" vertex="1" parent="1">
                    <mxGeometry x="211" y="201" width="120" height="80" as="geometry"/>
                </mxCell>
                <mxCell id="14" value="&amp;lt;&amp;lt;Internet&amp;gt;&amp;gt;" style="text;html=1;align=center;verticalAlign=middle;resizable=0;points=[];autosize=1;strokeColor=none;fillColor=none;fontColor=#121212;" vertex="1" parent="1">
                    <mxGeometry x="357" y="183" width="79" height="18" as="geometry"/>
                </mxCell>
            </root>
        </mxGraphModel>
    </diagram>
</mxfile>